PathFileType	4	(X/Y/Z)	Patient5_TMGait_0pt45_1_right_05.trc.trc
DataRate	CameraRate	NumFrames	NumMarkers	Units	OrigDataRate	OrigDataStartFrame	OrigNumFrames
59.829059829060	59.829059829060	4	32	mm	59.829059829060	89	       141
Frame#	Time	R.ASIS			L.ASIS			Chest			R.Shoulder			Neck			L.Shoulder			L.Elbow			L.Wrist			R.Elbow			R.Wrist			L.Thigh.Superior			L.Thigh.Lateral			L.Thigh.Inferior			L.Patella			L.Shank.Superior			L.Shank.Lateral			L.Shank.Inferior			L.Heel			L.Midfoot.Lateral			L.Midfoot.Superior			L.Toe			R.Thigh.Superior			R.Thigh.Lateral			R.Thigh.Inferior			R.Patella			R.Shank.Superior			R.Shank.Lateral			R.Shank.Inferior			R.Heel			R.Midfoot.Lateral			R.Midfoot.Superior			R.Toe			
		X1	Y1	Z1	X2	Y2	Z2	X3	Y3	Z3	X4	Y4	Z4	X5	Y5	Z5	X6	Y6	Z6	X7	Y7	Z7	X8	Y8	Z8	X9	Y9	Z9	X10	Y10	Z10	X11	Y11	Z11	X12	Y12	Z12	X13	Y13	Z13	X14	Y14	Z14	X15	Y15	Z15	X16	Y16	Z16	X17	Y17	Z17	X18	Y18	Z18	X19	Y19	Z19	X20	Y20	Z20	X21	Y21	Z21	X22	Y22	Z22	X23	Y23	Z23	X24	Y24	Z24	X25	Y25	Z25	X26	Y26	Z26	X27	Y27	Z27	X28	Y28	Z28	X29	Y29	Z29	X30	Y30	Z30	X31	Y31	Z31	X32	Y32	Z32	

89	9.400857142857	974.160062396556	1013.248153784444	535.505605851372	999.197486635272	966.363030304726	292.033400343116	1058.299068157043	1446.345333687632	430.153281542187	926.527018746644	1509.231504487816	572.952557364851	945.418884025142	1572.711181387240	390.604684061225	1043.296035565940	1520.164335085656	228.975628418153	1004.941038695859	1207.564640976147	75.171035740902	1142.788858688662	955.447483793320	72.631464701767	805.944149593310	1190.018925895662	684.961556138045	1022.414075852120	996.694366369533	675.752838308058	1020.156902468913	747.151495424324	294.849035838846	950.114312693931	673.964306103795	255.158643157786	1019.810570922246	620.827120547831	325.854266209059	1021.321473495575	505.512250920328	340.280666763861	973.924598434663	403.120603498000	363.499214860634	912.290131887236	329.961926717917	284.058445898925	939.748511586243	280.697994443001	376.685986959506	807.322407449926	50.089213737293	388.368017903848	894.431725783375	27.265297837878	325.363126974214	992.598434095091	88.586198353567	368.069473481302	1100.226828893880	45.063713341365	369.854433286686	1003.591313498929	787.867356886631	579.384462794493	921.974167523395	713.660652405577	641.307510698777	1011.483319601334	654.624019564356	585.293016439236	1009.375248395862	551.255227212222	630.941376622675	927.909992442354	454.470591030058	599.769044441558	826.308735922683	430.918264026312	676.786352093895	849.843559584979	335.763675895017	605.502934105151	647.410424615485	193.722559734877	575.746680487912	689.956501335000	126.834426659784	652.483964172986	815.729959038701	131.441377621659	649.051147431518	881.946640186719	42.500088762050	654.596875983577	
90	9.417571428571	971.722427929944	1014.252632462887	532.798012895477	997.223528963808	966.110397741446	290.521223812814	1056.972502635240	1446.711513388856	428.143977520421	925.039795784025	1509.598386421744	570.646738085178	944.319997973604	1573.137899399799	388.361570039408	1042.815927824367	1520.658139848604	227.222931887954	1007.303526571366	1207.511951880929	73.706539145298	1147.069466302460	956.454842096216	72.002755116459	803.590070621608	1190.468194442741	682.051678291458	1019.544687236527	996.622800455261	671.702356357418	1016.322576642111	746.779560807012	293.422240039267	945.091823470140	674.382532822802	254.368852831295	1015.116156769361	620.280865232521	323.933530368298	1015.576114704951	504.905000295537	338.050679174411	967.737723651105	402.995451737593	361.887198105851	904.628405588499	330.206002899646	283.370204864100	933.138064556090	280.667791324236	375.460402595629	799.786046334278	50.241019108610	388.201090046931	886.835433340258	27.232604466193	325.257393414087	985.103928706021	88.549405126268	367.708440319681	1092.601687782030	45.077986395317	369.738341281962	1001.178700540741	789.538829947810	579.354853523766	919.325027693728	715.921349452076	641.420409275117	1008.904421797388	656.923801987198	586.150289111648	1007.992007140653	554.943222552786	633.253225461826	931.773110153727	456.142452909390	603.106317681064	829.813862357867	428.885290140362	678.015596933204	860.135041168044	333.636926297733	609.826279347315	666.987134199717	178.390544763393	577.812291167137	711.261861771623	117.717005990067	659.362287793986	836.512641959839	129.480768155445	659.447515847026	907.781784256566	44.707016877942	671.499023879232	
91	9.434285714286	969.115465232813	1015.047129672776	530.660361447852	995.133603203250	965.778171462050	289.290795825945	1055.546458472514	1446.881256261453	426.197934416508	923.566641094482	1509.889603297577	568.410157569006	943.139107093739	1573.419700159976	386.157658186023	1042.201166170037	1520.884537064162	225.486748656739	1009.446529879151	1207.179205416862	72.391184568524	1150.983371694129	957.118654235080	71.643345617415	801.538081494405	1190.852071292535	679.519947932186	1016.835439962157	996.366713057142	667.566167588449	1012.577797287405	746.434226936129	292.286249584491	940.313800484463	674.738695179368	253.756182839281	1010.625561528007	619.760424543545	322.310700773622	1010.050606667926	504.272617720382	336.129684846461	961.697851814982	402.824484261884	360.490238782770	897.222736901850	330.446504487163	282.869368562389	926.667647495993	280.626966847141	374.414506560624	792.277614473343	50.412373279984	388.039547248638	879.261348162451	27.210481709473	325.171231891352	977.625252824075	88.516306394211	367.379608030417	1084.996571827295	45.075182345503	369.641150821124	998.499435560334	791.259695690318	580.053163226085	916.470623692881	718.038305842448	641.966825933976	1006.537229616902	659.394796686221	587.751344755500	1007.130883115065	558.846691457990	636.268144919799	936.587040879364	457.995892151340	606.521220193991	834.659264920479	426.554275459005	679.394113825577	872.025837846928	331.921530050521	614.041391205899	689.111585060044	163.866599347426	580.038709018299	735.243071756638	108.663456242041	665.153455269218	859.495357751087	128.058864620810	668.253518499652	935.760069588481	48.019262936959	685.228202292216	
92	9.451000000000	966.441583694337	1015.724975330454	529.263257569486	992.950409721207	965.405136586064	288.385966390887	1053.990135360938	1446.879850904834	424.352761441952	922.035757119429	1510.143676419997	566.244205408053	941.866996840053	1573.575259699045	383.998815194649	1041.444641395774	1520.840059942582	223.781184247811	1011.359023974525	1206.562197170695	71.240905528502	1154.525226915451	957.435789169242	71.556298901778	799.721004060778	1191.179078335610	677.310524583124	1014.286558371054	996.007687125039	663.441368863398	1008.914024203366	746.104379884495	291.466084284140	935.792753891328	675.026066269802	253.334360367193	1006.287686611101	619.260675641526	321.027512811355	1004.696737988863	503.624119994312	334.551232343725	955.779702839273	402.613044770812	359.331897299278	890.066936730975	330.682218986303	282.529978890637	920.323463761804	280.585793389298	373.579296921780	784.790849000762	50.592337228084	387.891675943655	871.707495401285	27.200416780256	325.102730983765	970.159461975863	88.491302943536	367.083691750922	1077.410296813897	45.052893019418	369.564040827405	995.794201966077	793.105122393741	581.439585989566	913.773109884454	720.033193184994	642.932728980590	1004.736212059368	662.124420459500	590.003801028545	1007.144107652997	562.984700408496	639.843221569383	942.451860091913	460.178492891641	609.883507454441	840.985928273863	424.240187974957	680.889625279270	885.272864644931	330.934905426510	617.960704188765	713.078702031238	151.087696979267	582.315592656937	761.211810054793	100.352112666626	669.612745265161	883.980541716466	127.487122133430	675.110693665054	964.984797325811	52.514907890273	695.219684510008	
